<svg width="258" height="64" viewBox="0 0 258 64" fill="none" xmlns="http://www.w3.org/2000/svg">
<g clip-path="url(#clip0_214_6)">
<path d="M81.2017 44V14.9091H88.233V26.5852H99.696V14.9091H106.713V44H99.696V32.3097H88.233V44H81.2017ZM115.371 52.1818C114.537 52.1818 113.751 52.1155 113.013 51.983C112.274 51.8598 111.64 51.6941 111.109 51.4858L112.643 46.4432C113.325 46.6705 113.941 46.803 114.49 46.8409C115.049 46.8788 115.527 46.7888 115.925 46.571C116.332 46.3627 116.644 45.9886 116.862 45.4489L117.132 44.7955L109.376 22.1818H116.649L120.669 37.75H120.896L124.973 22.1818H132.288L124.064 46.0881C123.666 47.2813 123.103 48.3324 122.374 49.2415C121.654 50.16 120.721 50.8797 119.575 51.4006C118.439 51.9214 117.037 52.1818 115.371 52.1818ZM134.952 44V14.9091H141.898V25.9176H142.04C142.324 25.2547 142.726 24.6155 143.247 24C143.777 23.3845 144.45 22.8826 145.264 22.4943C146.088 22.0966 147.073 21.8977 148.219 21.8977C149.734 21.8977 151.15 22.2955 152.466 23.0909C153.792 23.8864 154.862 25.1127 155.676 26.7699C156.491 28.4271 156.898 30.5388 156.898 33.1051C156.898 35.5767 156.505 37.6458 155.719 39.3125C154.942 40.9792 153.891 42.2292 152.565 43.0625C151.249 43.8958 149.786 44.3125 148.176 44.3125C147.078 44.3125 146.126 44.1326 145.321 43.7727C144.516 43.4129 143.839 42.9394 143.29 42.3523C142.75 41.7652 142.333 41.1354 142.04 40.4631H141.827V44H134.952ZM141.756 33.0909C141.756 34.2652 141.912 35.2879 142.224 36.1591C142.546 37.0303 143.006 37.7074 143.602 38.1903C144.208 38.6638 144.933 38.9006 145.776 38.9006C146.628 38.9006 147.352 38.6638 147.949 38.1903C148.545 37.7074 148.995 37.0303 149.298 36.1591C149.611 35.2879 149.767 34.2652 149.767 33.0909C149.767 31.9167 149.611 30.8987 149.298 30.0369C148.995 29.1752 148.545 28.5076 147.949 28.0341C147.362 27.5606 146.637 27.3239 145.776 27.3239C144.923 27.3239 144.199 27.5559 143.602 28.0199C143.006 28.4839 142.546 29.1468 142.224 30.0085C141.912 30.8703 141.756 31.8977 141.756 33.0909ZM160.538 44V14.9091H172.555C174.733 14.9091 176.612 15.3021 178.194 16.0881C179.785 16.8646 181.011 17.982 181.873 19.4403C182.735 20.8892 183.165 22.608 183.165 24.5966C183.165 26.6136 182.725 28.3277 181.844 29.7386C180.964 31.1402 179.714 32.2102 178.094 32.9489C176.475 33.678 174.558 34.0426 172.342 34.0426H164.742V28.5028H171.035C172.095 28.5028 172.981 28.3655 173.691 28.0909C174.411 27.8068 174.955 27.3807 175.325 26.8125C175.694 26.2348 175.879 25.4962 175.879 24.5966C175.879 23.697 175.694 22.9536 175.325 22.3665C174.955 21.7699 174.411 21.3248 173.691 21.0312C172.971 20.7282 172.086 20.5767 171.035 20.5767H167.569V44H160.538ZM176.915 30.7045L184.16 44H176.489L169.387 30.7045H176.915ZM196.791 44.4119C194.509 44.4119 192.539 43.9621 190.882 43.0625C189.234 42.1534 187.965 40.8608 187.075 39.1847C186.195 37.4991 185.754 35.4962 185.754 33.1761C185.754 30.9223 186.199 28.9527 187.089 27.267C187.98 25.572 189.234 24.2557 190.854 23.3182C192.473 22.3712 194.381 21.8977 196.578 21.8977C198.131 21.8977 199.552 22.1392 200.839 22.6222C202.127 23.1051 203.24 23.8201 204.178 24.767C205.115 25.714 205.844 26.8835 206.365 28.2756C206.886 29.6581 207.146 31.2443 207.146 33.0341V34.767H188.183V30.733H200.683C200.674 29.9943 200.499 29.3362 200.158 28.7585C199.817 28.1809 199.348 27.7311 198.751 27.4091C198.164 27.0777 197.487 26.9119 196.72 26.9119C195.944 26.9119 195.248 27.0871 194.632 27.4375C194.017 27.7784 193.529 28.2472 193.169 28.8438C192.809 29.4309 192.62 30.0985 192.601 30.8466V34.9517C192.601 35.8419 192.776 36.6231 193.126 37.2955C193.477 37.9583 193.974 38.4744 194.618 38.8438C195.262 39.2131 196.029 39.3977 196.919 39.3977C197.535 39.3977 198.093 39.3125 198.595 39.142C199.097 38.9716 199.528 38.7206 199.888 38.3892C200.248 38.0578 200.518 37.6506 200.697 37.1676L207.075 37.3523C206.81 38.7822 206.228 40.0275 205.328 41.0881C204.438 42.1392 203.268 42.9583 201.82 43.5455C200.371 44.1231 198.695 44.4119 196.791 44.4119ZM216.844 44.3693C215.452 44.3693 214.217 44.1373 213.137 43.6733C212.067 43.1998 211.219 42.4896 210.594 41.5426C209.979 40.5862 209.671 39.3883 209.671 37.9489C209.671 36.7367 209.884 35.714 210.31 34.8807C210.737 34.0473 211.324 33.3703 212.072 32.8494C212.82 32.3286 213.682 31.9356 214.657 31.6705C215.632 31.3958 216.674 31.2112 217.782 31.1165C219.022 31.0028 220.022 30.8845 220.779 30.7614C221.537 30.6288 222.086 30.4441 222.427 30.2074C222.777 29.9612 222.952 29.6155 222.952 29.1705V29.0994C222.952 28.3703 222.701 27.8068 222.2 27.4091C221.698 27.0114 221.021 26.8125 220.168 26.8125C219.25 26.8125 218.511 27.0114 217.952 27.4091C217.394 27.8068 217.039 28.3561 216.887 29.0568L210.481 28.8295C210.67 27.5038 211.158 26.3201 211.944 25.2784C212.739 24.2273 213.828 23.4034 215.211 22.8068C216.603 22.2008 218.274 21.8977 220.225 21.8977C221.617 21.8977 222.9 22.0634 224.075 22.3949C225.249 22.7169 226.272 23.1903 227.143 23.8153C228.014 24.4309 228.686 25.1884 229.16 26.0881C229.643 26.9877 229.884 28.0152 229.884 29.1705V44H223.35V40.9602H223.18C222.791 41.6989 222.294 42.3239 221.688 42.8352C221.092 43.3466 220.386 43.7301 219.572 43.9858C218.767 44.2415 217.858 44.3693 216.844 44.3693ZM218.989 39.8239C219.737 39.8239 220.41 39.6723 221.006 39.3693C221.612 39.0663 222.095 38.6496 222.455 38.1193C222.815 37.5795 222.995 36.9545 222.995 36.2443V34.1705C222.796 34.2746 222.555 34.3693 222.271 34.4545C221.996 34.5398 221.693 34.6203 221.362 34.696C221.03 34.7718 220.689 34.8381 220.339 34.8949C219.988 34.9517 219.652 35.0038 219.33 35.0511C218.677 35.1553 218.118 35.3163 217.654 35.5341C217.2 35.7519 216.849 36.036 216.603 36.3864C216.366 36.7273 216.248 37.1345 216.248 37.608C216.248 38.3277 216.504 38.8769 217.015 39.2557C217.536 39.6345 218.194 39.8239 218.989 39.8239ZM242.1 44.3125C240.49 44.3125 239.027 43.8958 237.711 43.0625C236.395 42.2292 235.344 40.9792 234.558 39.3125C233.772 37.6458 233.379 35.5767 233.379 33.1051C233.379 30.5388 233.786 28.4271 234.6 26.7699C235.415 25.1127 236.48 23.8864 237.796 23.0909C239.122 22.2955 240.547 21.8977 242.072 21.8977C243.218 21.8977 244.198 22.0966 245.012 22.4943C245.826 22.8826 246.499 23.3845 247.029 24C247.559 24.6155 247.962 25.2547 248.237 25.9176H248.379V14.9091H255.325V44H248.45V40.4631H248.237C247.943 41.1354 247.526 41.7652 246.987 42.3523C246.447 42.9394 245.77 43.4129 244.955 43.7727C244.15 44.1326 243.199 44.3125 242.1 44.3125ZM244.515 38.9006C245.358 38.9006 246.077 38.6638 246.674 38.1903C247.271 37.7074 247.73 37.0303 248.052 36.1591C248.374 35.2879 248.535 34.2652 248.535 33.0909C248.535 31.8977 248.374 30.8703 248.052 30.0085C247.739 29.1468 247.28 28.4839 246.674 28.0199C246.077 27.5559 245.358 27.3239 244.515 27.3239C243.653 27.3239 242.924 27.5606 242.327 28.0341C241.731 28.5076 241.276 29.1752 240.964 30.0369C240.661 30.8987 240.509 31.9167 240.509 33.0909C240.509 34.2652 240.665 35.2879 240.978 36.1591C241.29 37.0303 241.74 37.7074 242.327 38.1903C242.924 38.6638 243.653 38.9006 244.515 38.9006Z" fill="#0A859A"/>
<path d="M59.9956 15.6436C59.9955 15.4188 59.9198 15.2007 59.7807 15.0243C59.6415 14.8478 59.447 14.7233 59.2285 14.6709C57.8528 14.3466 56.4593 14.1029 55.0552 13.9409V11.9785C55.0553 11.7627 54.9856 11.5526 54.8564 11.3797C54.7271 11.2069 54.5454 11.0805 54.3384 11.0195C50.5644 9.90419 46.5812 9.69101 42.7098 10.3972C38.8384 11.1033 35.1869 12.7091 32.0498 15.085C28.8494 12.8107 25.1885 11.267 21.3259 10.5632C17.4633 9.85932 13.4932 10.0124 9.69629 11.0117C9.48254 11.0677 9.29338 11.193 9.15838 11.3679C9.02339 11.5428 8.95018 11.7576 8.9502 11.9785V14.0245C7.55175 14.1615 6.16193 14.3757 4.78711 14.6661C4.56408 14.7148 4.36441 14.8383 4.22124 15.0161C4.07806 15.1939 4 15.4153 4 15.6436L4.00537 52.875C4.20251 54.9607 7.51424 53.1272 9.05662 52.797C12.2714 51.5659 15.6846 50.9344 19.127 50.9336C23.5605 51.1186 29.417 51.2233 31.6554 52.4839C31.7886 52.5464 31.9344 52.5777 32.0815 52.5752C32.2286 52.5728 32.3732 52.5367 32.5042 52.4698C34.6108 51.0199 40.3469 50.9173 45.3521 50.9658C49.0926 51.0444 52.7888 51.7929 56.2652 53.1758C57.4809 53.4759 58.6538 54.3748 59.6202 53.7932C59.7386 53.6995 59.8342 53.5803 59.9 53.4445C59.9658 53.3087 60 53.1597 60 53.0088L59.9956 15.6436ZM42.7539 12.4248C46.1679 11.7574 49.6882 11.8648 53.0552 12.7393V45.9678C46.702 44.1967 37.8088 46.1008 33.0694 49.6212V16.8302C35.912 14.6302 39.2277 13.122 42.7539 12.4248ZM21.125 12.5596C24.714 13.2469 28.1085 14.7129 31.0693 16.8545V49.8416C24.9367 46.4718 17.8845 45.1591 10.9502 46.0967V14.8533C10.9503 14.8337 10.9501 12.7858 10.9502 12.7627C14.2919 11.9976 17.7554 11.9284 21.125 12.5596ZM19.2178 48.9356C13.883 48.7236 10.1839 50.4576 6.00538 51.6436L6 16.459C6.95935 16.274 7.94965 16.1397 8.9502 16.0306V47.2617C8.95136 47.407 8.98396 47.5503 9.04575 47.6818C9.10755 47.8133 9.19708 47.9299 9.30818 48.0235C9.41929 48.1171 9.54935 48.1856 9.68942 48.2242C9.8295 48.2627 9.97626 48.2706 10.1196 48.2471C14.8779 47.421 19.7644 47.7369 24.3767 49.1687C22.8842 49.091 20.8099 49.0039 19.2178 48.9356ZM56.938 51.292C53.2535 49.8296 49.336 49.0417 45.3726 48.9658C42.4749 48.9351 40.1238 48.9833 38.2006 49.1204C42.6563 46.9122 50.4423 46.9634 53.7779 48.223C53.9267 48.2643 54.0831 48.2709 54.235 48.2421C54.3868 48.2134 54.53 48.1501 54.6534 48.0572C54.7769 47.9642 54.8773 47.8442 54.947 47.7063C55.0167 47.5683 55.0537 47.4162 55.0552 47.2617V15.9507C56.035 16.0749 57.0101 16.2271 57.9956 16.4405L58 51.665C57.669 51.5527 57.314 51.4258 56.938 51.292Z" fill="#0A859A"/>
<path d="M14.3471 19.8017C18.2411 18.4783 24.36 20.0188 26.8896 22.2844C27.1014 22.4382 27.365 22.5028 27.6239 22.4644C27.8828 22.426 28.1163 22.2877 28.2744 22.0791C28.4324 21.8705 28.5025 21.6082 28.4694 21.3486C28.4364 21.089 28.3029 20.8527 28.0976 20.6903C26.0893 19.1712 23.7623 18.1279 21.2921 17.639C18.8219 17.1501 16.2729 17.2285 13.8374 17.8681C13.5855 17.9398 13.3717 18.1073 13.242 18.3349C13.1124 18.5624 13.0771 18.8317 13.1439 19.085C13.2106 19.3382 13.3741 19.5551 13.5991 19.6891C13.8241 19.8232 14.0927 19.8636 14.3471 19.8017Z" fill="#0A859A"/>
<path d="M14.3471 25.1064C18.2376 23.7841 24.3617 25.3232 26.8896 27.5891C27.1014 27.7429 27.365 27.8075 27.6239 27.7691C27.8828 27.7307 28.1163 27.5924 28.2744 27.3838C28.4324 27.1752 28.5025 26.9129 28.4694 26.6533C28.4364 26.3937 28.3029 26.1574 28.0976 25.995C26.0893 24.4759 23.7623 23.4326 21.2921 22.9437C18.8219 22.4548 16.2729 22.5332 13.8374 23.1728C13.5854 23.2444 13.3716 23.412 13.2419 23.6395C13.1121 23.8671 13.0769 24.1364 13.1436 24.3897C13.2104 24.643 13.3739 24.86 13.5989 24.994C13.824 25.128 14.0926 25.1684 14.3471 25.1064Z" fill="#0A859A"/>
<path d="M14.3471 30.4111C18.2374 29.0878 24.3618 30.6284 26.8896 32.8938C27.1014 33.0476 27.365 33.1122 27.6239 33.0738C27.8828 33.0354 28.1163 32.8971 28.2744 32.6885C28.4324 32.4799 28.5025 32.2176 28.4694 31.958C28.4364 31.6984 28.3029 31.4621 28.0976 31.2997C26.0893 29.7806 23.7623 28.7372 21.2921 28.2484C18.8219 27.7595 16.2729 27.8378 13.8374 28.4775C13.5855 28.5491 13.3717 28.7167 13.242 28.9443C13.1124 29.1718 13.0771 29.4411 13.1439 29.6943C13.2106 29.9476 13.3741 30.1645 13.5991 30.2985C13.8241 30.4325 14.0927 30.473 14.3471 30.4111Z" fill="#0A859A"/>
<path d="M14.3471 35.7159C18.2374 34.3919 24.3617 35.9334 26.8896 38.1986C27.1014 38.3524 27.365 38.417 27.6239 38.3786C27.8828 38.3402 28.1163 38.2019 28.2744 37.9933C28.4324 37.7847 28.5025 37.5224 28.4694 37.2628C28.4364 37.0032 28.3029 36.7668 28.0976 36.6045C26.0892 35.0855 23.7622 34.0422 21.292 33.5533C18.8218 33.0645 16.2729 33.1428 13.8374 33.7823C13.5855 33.8539 13.3717 34.0215 13.242 34.249C13.1124 34.4766 13.0771 34.7459 13.1439 34.9991C13.2106 35.2524 13.3741 35.4693 13.5991 35.6033C13.8241 35.7373 14.0927 35.7778 14.3471 35.7159Z" fill="#0A859A"/>
<path d="M14.3471 41.0204C18.2373 39.6964 24.3615 41.2386 26.8896 43.5032C27.1014 43.6569 27.365 43.7215 27.6239 43.6831C27.8828 43.6447 28.1163 43.5064 28.2744 43.2978C28.4324 43.0892 28.5025 42.827 28.4694 42.5674C28.4364 42.3077 28.3029 42.0714 28.0976 41.9091C26.0891 40.3903 23.7621 39.3472 21.292 38.8583C18.8218 38.3695 16.2729 38.4476 13.8374 39.0869C13.5854 39.1584 13.3716 39.326 13.2419 39.5536C13.1121 39.7811 13.0769 40.0505 13.1436 40.3038C13.2104 40.557 13.3739 40.774 13.5989 40.908C13.824 41.042 14.0926 41.0824 14.3471 41.0204Z" fill="#0A859A"/>
<path d="M36.5688 22.3477C36.7866 22.3476 36.9984 22.2763 37.1718 22.1446C38.9362 20.8045 40.9829 19.8844 43.1563 19.4543C45.3297 19.0241 47.5725 19.0952 49.7143 19.6622C49.9689 19.7243 50.2376 19.684 50.4628 19.55C50.688 19.4159 50.8515 19.1989 50.9183 18.9455C50.9851 18.6922 50.9498 18.4227 50.8199 18.1951C50.6901 17.9675 50.4761 17.8 50.224 17.7285C47.7889 17.0844 45.239 17.0038 42.768 17.4929C40.297 17.9819 37.9701 19.0277 35.9638 20.5508C35.8007 20.6794 35.6814 20.8552 35.6221 21.0542C35.5629 21.2532 35.5667 21.4657 35.6329 21.6625C35.6992 21.8593 35.8247 22.0308 35.9923 22.1535C36.1598 22.2762 36.3612 22.344 36.5688 22.3477Z" fill="#0A859A"/>
<path d="M36.5688 27.6524C36.7866 27.6523 36.9984 27.581 37.1718 27.4493C38.9361 26.1091 40.9828 25.189 43.1562 24.7589C45.3296 24.3287 47.5725 24.3998 49.7143 24.9668C49.9689 25.0289 50.2376 24.9887 50.4628 24.8546C50.688 24.7206 50.8515 24.5036 50.9183 24.2502C50.9851 23.9969 50.9498 23.7274 50.8199 23.4998C50.6901 23.2722 50.4761 23.1047 50.224 23.0332C47.7889 22.3891 45.239 22.3085 42.768 22.7975C40.297 23.2866 37.97 24.3324 35.9638 25.8555C35.8007 25.984 35.6814 26.1599 35.6221 26.3589C35.5629 26.5579 35.5667 26.7704 35.6329 26.9672C35.6992 27.164 35.8247 27.3355 35.9923 27.4581C36.1598 27.5808 36.3612 27.6487 36.5688 27.6524Z" fill="#0A859A"/>
<path d="M36.5688 32.9569C36.7866 32.9569 36.9984 32.8856 37.1718 32.7538C38.9362 31.4137 40.9828 30.4936 43.1562 30.0634C45.3297 29.6333 47.5725 29.7044 49.7143 30.2714C49.9688 30.3334 50.2376 30.2931 50.4627 30.1591C50.6878 30.0251 50.8513 29.8081 50.9181 29.5547C50.9848 29.3014 50.9495 29.032 50.8197 28.8044C50.69 28.5768 50.476 28.4093 50.224 28.3378C47.7889 27.6937 45.2389 27.6131 42.768 28.1021C40.297 28.5911 37.97 29.637 35.9638 31.1601C35.8007 31.2886 35.6814 31.4644 35.6221 31.6635C35.5629 31.8625 35.5667 32.075 35.6329 32.2718C35.6992 32.4686 35.8247 32.6401 35.9923 32.7627C36.1598 32.8854 36.3612 32.9532 36.5688 32.9569Z" fill="#0A859A"/>
<path d="M36.5688 38.2618C36.7866 38.2617 36.9984 38.1904 37.1718 38.0586C38.9362 36.7185 40.9829 35.7984 43.1563 35.3682C45.3297 34.9381 47.5725 35.0092 49.7143 35.5762C49.9689 35.6382 50.2376 35.5979 50.4627 35.4639C50.6878 35.3299 50.8513 35.1129 50.9181 34.8595C50.9849 34.6062 50.9495 34.3368 50.8198 34.1092C50.69 33.8817 50.4761 33.7141 50.224 33.6426C47.7889 32.9985 45.239 32.9179 42.768 33.4069C40.297 33.8959 37.9701 34.9418 35.9638 36.4649C35.8007 36.5934 35.6814 36.7692 35.6221 36.9683C35.5629 37.1673 35.5667 37.3798 35.6329 37.5766C35.6992 37.7734 35.8247 37.9449 35.9923 38.0675C36.1598 38.1902 36.3612 38.258 36.5688 38.2618Z" fill="#0A859A"/>
<path d="M50.224 38.9473C47.7884 38.3082 45.2396 38.2301 42.7694 38.719C40.2993 39.2079 37.9723 40.2509 35.9638 41.7696C35.8591 41.8489 35.7711 41.9481 35.7048 42.0614C35.6385 42.1747 35.5951 42.3 35.5772 42.4301C35.5593 42.5602 35.5672 42.6925 35.6004 42.8195C35.6337 42.9466 35.6916 43.0658 35.7709 43.1705C35.8502 43.2751 35.9494 43.3631 36.0627 43.4294C36.176 43.4958 36.3013 43.5391 36.4314 43.557C36.5615 43.5749 36.6938 43.567 36.8209 43.5338C36.9479 43.5006 37.0671 43.4426 37.1718 43.3633C39.7041 41.0965 45.8193 39.5611 49.7143 40.8812C49.9688 40.943 50.2373 40.9025 50.4623 40.7684C50.6873 40.6344 50.8507 40.4174 50.9174 40.1642C50.9842 39.911 50.9489 39.6417 50.8193 39.4141C50.6896 39.1866 50.4759 39.019 50.224 38.9473Z" fill="#0A859A"/>
</g>
<defs>
<clipPath id="clip0_214_6">
<rect width="258" height="64" fill="white"/>
</clipPath>
</defs>
</svg>
