<svg width="370" height="370" viewBox="0 0 370 370" fill="none" xmlns="http://www.w3.org/2000/svg">
<g clip-path="url(#clip0_59_139)">
<rect width="370" height="370" rx="82" fill="#0A859A"/>
<path d="M304.006 115.033C304.005 114.078 303.683 113.15 303.092 112.4C302.5 111.65 301.674 111.121 300.745 110.899C294.898 109.52 288.975 108.484 283.007 107.796V99.4547C283.007 98.5374 282.711 97.6445 282.161 96.9097C281.612 96.1749 280.84 95.6377 279.96 95.3786C263.919 90.6379 246.989 89.7318 230.533 92.7333C214.078 95.7347 198.558 102.56 185.224 112.659C171.621 102.992 156.06 96.4305 139.643 93.4389C123.225 90.4472 106.35 91.098 90.2117 95.3454C89.3032 95.5834 88.4991 96.1158 87.9254 96.8593C87.3516 97.6028 87.0404 98.5155 87.0405 99.4547V108.151C81.0965 108.733 75.1891 109.644 69.3456 110.878C68.3976 111.085 67.5489 111.61 66.9404 112.366C66.3318 113.121 66 114.062 66 115.033L66.0228 273.282C66.8608 282.147 80.937 274.354 87.4928 272.951C101.157 267.718 115.664 265.034 130.296 265.031C149.141 265.817 174.033 266.262 183.548 271.62C184.114 271.886 184.733 272.019 185.358 272.008C185.984 271.998 186.598 271.844 187.155 271.56C196.109 265.397 220.49 264.961 241.764 265.167C257.663 265.501 273.373 268.683 288.15 274.561C293.317 275.836 298.302 279.657 302.41 277.185C302.913 276.787 303.319 276.28 303.599 275.703C303.879 275.126 304.024 274.493 304.024 273.851L304.006 115.033ZM230.721 101.352C245.232 98.5147 260.195 98.9715 274.506 102.688V243.924C247.502 236.396 209.702 244.489 189.557 259.452V120.076C201.64 110.725 215.733 104.315 230.721 101.352ZM138.789 101.924C154.043 104.846 168.471 111.077 181.056 120.18V260.389C154.99 246.066 125.015 240.487 95.5413 244.472V111.674C95.5418 111.591 95.5409 102.886 95.5413 102.788C109.745 99.5356 124.466 99.2418 138.789 101.924ZM130.682 256.538C108.007 255.637 92.2841 263.007 74.5237 268.048L74.5009 118.499C78.5785 117.712 82.7877 117.142 87.0405 116.678V249.424C87.0454 250.041 87.184 250.65 87.4466 251.209C87.7093 251.768 88.0898 252.263 88.5621 252.661C89.0343 253.059 89.5871 253.35 90.1825 253.514C90.7779 253.678 91.4017 253.712 92.0111 253.612C112.236 250.1 133.005 251.443 152.61 257.529C146.266 257.199 137.449 256.829 130.682 256.538ZM291.009 266.554C275.348 260.338 258.697 256.989 241.851 256.667C229.535 256.536 219.542 256.741 211.367 257.324C230.306 247.938 263.4 248.156 277.577 253.509C278.21 253.685 278.875 253.713 279.52 253.591C280.166 253.468 280.774 253.199 281.299 252.804C281.824 252.41 282.251 251.899 282.547 251.313C282.843 250.727 283 250.08 283.007 249.423V116.338C287.171 116.866 291.316 117.513 295.505 118.42L295.523 268.139C294.116 267.662 292.607 267.123 291.009 266.554Z" fill="white"/>
<path d="M109.98 132.707C126.531 127.081 152.539 133.629 163.29 143.259C164.191 143.913 165.311 144.187 166.412 144.024C167.512 143.861 168.505 143.273 169.176 142.386C169.848 141.5 170.146 140.385 170.005 139.282C169.865 138.178 169.297 137.174 168.425 136.484C159.889 130.027 149.998 125.592 139.499 123.514C128.999 121.436 118.165 121.769 107.813 124.488C106.742 124.793 105.834 125.505 105.282 126.472C104.731 127.439 104.582 128.584 104.865 129.66C105.149 130.736 105.844 131.659 106.8 132.228C107.756 132.798 108.898 132.97 109.98 132.707Z" fill="white"/>
<path d="M109.98 155.254C126.516 149.633 152.546 156.175 163.29 165.807C164.191 166.46 165.311 166.735 166.412 166.571C167.512 166.408 168.505 165.82 169.176 164.934C169.848 164.047 170.146 162.932 170.005 161.829C169.865 160.725 169.298 159.721 168.425 159.031C159.889 152.574 149.998 148.139 139.499 146.061C128.999 143.983 118.165 144.316 107.813 147.035C106.742 147.34 105.833 148.052 105.282 149.019C104.73 149.986 104.581 151.131 104.864 152.208C105.148 153.284 105.843 154.206 106.8 154.776C107.756 155.346 108.898 155.517 109.98 155.254Z" fill="white"/>
<path d="M109.98 177.801C126.515 172.177 152.546 178.725 163.29 188.354C164.191 189.007 165.311 189.282 166.412 189.119C167.512 188.956 168.505 188.368 169.176 187.481C169.848 186.594 170.146 185.48 170.005 184.376C169.865 183.273 169.297 182.268 168.425 181.578C159.889 175.121 149.998 170.687 139.499 168.609C128.999 166.531 118.165 166.864 107.813 169.583C106.742 169.887 105.834 170.599 105.282 171.566C104.731 172.534 104.582 173.678 104.865 174.755C105.149 175.831 105.844 176.753 106.8 177.323C107.756 177.892 108.898 178.064 109.98 177.801Z" fill="white"/>
<path d="M109.98 200.349C126.515 194.721 152.546 201.273 163.29 210.901C164.191 211.555 165.311 211.83 166.412 211.666C167.512 211.503 168.505 210.915 169.176 210.029C169.848 209.142 170.146 208.027 170.005 206.924C169.865 205.82 169.297 204.816 168.425 204.126C159.889 197.669 149.998 193.235 139.498 191.157C128.999 189.079 118.165 189.412 107.813 192.13C106.742 192.435 105.834 193.147 105.282 194.114C104.731 195.081 104.582 196.226 104.865 197.302C105.149 198.379 105.844 199.301 106.8 199.87C107.756 200.44 108.898 200.612 109.98 200.349Z" fill="white"/>
<path d="M109.98 222.896C126.515 217.268 152.545 223.823 163.29 233.448C164.191 234.102 165.311 234.376 166.412 234.213C167.512 234.05 168.505 233.462 169.176 232.575C169.848 231.689 170.146 230.574 170.005 229.471C169.865 228.367 169.298 227.363 168.425 226.673C159.888 220.217 149.997 215.783 139.498 213.706C128.999 211.628 118.165 211.96 107.813 214.677C106.742 214.981 105.833 215.693 105.282 216.661C104.73 217.628 104.581 218.773 104.864 219.849C105.148 220.926 105.843 221.848 106.8 222.418C107.756 222.987 108.898 223.159 109.98 222.896Z" fill="white"/>
<path d="M204.431 143.528C205.357 143.528 206.257 143.225 206.994 142.665C214.494 136.969 223.193 133.058 232.431 131.23C241.669 129.402 251.202 129.704 260.305 132.113C261.387 132.377 262.53 132.206 263.487 131.637C264.444 131.067 265.139 130.145 265.423 129.068C265.707 127.991 265.557 126.845 265.005 125.878C264.453 124.911 263.543 124.198 262.472 123.895C252.121 121.157 241.283 120.814 230.78 122.893C220.278 124.972 210.387 129.417 201.86 135.891C201.167 136.437 200.659 137.184 200.408 138.03C200.156 138.876 200.172 139.779 200.453 140.616C200.735 141.452 201.269 142.181 201.981 142.703C202.693 143.224 203.549 143.512 204.431 143.528Z" fill="white"/>
<path d="M204.431 166.075C205.357 166.075 206.257 165.772 206.994 165.212C214.493 159.516 223.193 155.605 232.431 153.777C241.669 151.948 251.202 152.251 260.305 154.661C261.387 154.925 262.53 154.753 263.487 154.184C264.444 153.614 265.139 152.692 265.423 151.615C265.707 150.538 265.557 149.392 265.005 148.425C264.453 147.458 263.543 146.746 262.472 146.442C252.121 143.704 241.283 143.362 230.78 145.44C220.278 147.519 210.387 151.964 201.86 158.438C201.167 158.984 200.659 159.732 200.408 160.577C200.156 161.423 200.172 162.326 200.453 163.163C200.735 163.999 201.268 164.728 201.981 165.25C202.693 165.771 203.549 166.06 204.431 166.075Z" fill="white"/>
<path d="M204.431 188.622C205.357 188.622 206.257 188.319 206.994 187.759C214.493 182.063 223.193 178.152 232.431 176.323C241.669 174.495 251.202 174.797 260.305 177.207C261.387 177.471 262.529 177.299 263.486 176.73C264.443 176.16 265.138 175.238 265.422 174.161C265.706 173.084 265.556 171.939 265.004 170.972C264.452 170.005 263.543 169.292 262.472 168.989C252.121 166.251 241.283 165.908 230.78 167.987C220.278 170.065 210.387 174.511 201.86 180.984C201.167 181.531 200.659 182.278 200.408 183.124C200.156 183.97 200.172 184.873 200.453 185.71C200.735 186.546 201.269 187.275 201.981 187.796C202.693 188.318 203.549 188.606 204.431 188.622Z" fill="white"/>
<path d="M204.431 211.17C205.357 211.17 206.257 210.866 206.994 210.306C214.494 204.61 223.193 200.699 232.431 198.871C241.669 197.043 251.202 197.345 260.305 199.755C261.387 200.019 262.529 199.847 263.486 199.278C264.443 198.708 265.138 197.786 265.422 196.709C265.706 195.632 265.556 194.487 265.004 193.52C264.452 192.553 263.543 191.84 262.472 191.536C252.121 188.799 241.283 188.456 230.78 190.535C220.278 192.613 210.387 197.058 201.86 203.532C201.167 204.079 200.659 204.826 200.408 205.672C200.156 206.518 200.172 207.421 200.453 208.258C200.735 209.094 201.269 209.823 201.981 210.344C202.693 210.866 203.549 211.154 204.431 211.17Z" fill="white"/>
<path d="M262.472 214.084C252.12 211.367 241.286 211.035 230.787 213.113C220.288 215.191 210.397 219.625 201.86 226.08C201.415 226.417 201.041 226.838 200.759 227.32C200.477 227.802 200.293 228.334 200.217 228.887C200.141 229.44 200.174 230.002 200.315 230.542C200.457 231.082 200.703 231.589 201.04 232.034C201.377 232.479 201.799 232.853 202.28 233.135C202.762 233.417 203.294 233.601 203.847 233.677C204.4 233.753 204.963 233.72 205.503 233.578C206.043 233.437 206.549 233.191 206.994 232.854C217.758 223.219 243.75 216.693 260.305 222.304C261.387 222.566 262.529 222.394 263.485 221.824C264.441 221.255 265.135 220.332 265.419 219.256C265.703 218.18 265.553 217.035 265.002 216.068C264.451 215.101 263.543 214.388 262.472 214.084Z" fill="white"/>
</g>
<defs>
<clipPath id="clip0_59_139">
<rect width="370" height="370" fill="white"/>
</clipPath>
</defs>
</svg>
