<?xml version="1.0" encoding="UTF-8"?>
<svg id="Calque_1" xmlns="http://www.w3.org/2000/svg" viewBox="0 0 764.82 699.63">
  <defs>
    <style>
      .cls-1 {
        fill: #0a859a;
      }
    </style>
  </defs>
  <path class="cls-1" d="M542.92,594.73l-27.31,21.35-85.71,57.23c-15.32,9.35-31.41,19.5-47.92,26.34-37.65-16.95-83.14-48.14-116.54-72.12l-71.66-56C94.72,485.77-.02,366.41,0,226.14.01,123.45,57.96,28.34,158.44,5.38c12.14-2.77,24.31-3.97,36.67-5.04,5.53-.58,11.42-.25,16.99-.24,59.55.01,108.13,14.9,153.79,57.58,5.88,5.49,11.75,11.2,16.24,17.98,6.69-9.37,15.6-17.64,24.44-24.81C449.37,16.11,494.63.21,548.26.11c70.39-.13,126.65,21.03,171.28,80.61,39.51,52.75,50.85,119.1,42.88,184.13-16.49,134.62-119.77,250.1-219.5,329.88Z"/>
</svg>